# xmcd
# Track frame offsets:
# 150
# 18087
# 35857
# 56032
# 72737
# 92455
# 104090
# 122782
# 140575
# 161620
# 185625
# 206072
# 261847
# 282357
# 303607
# 326685
#
# Disc length: 4626 seconds
# Revision: 0
# Processed by: cddbd v1.5PL3 Copyright (c) Steve Scherf et al.
# Submitted via: VisiTrax 2.9.9.202 - For more info visit www.synapsa.com
#
DISCID=fe121010
DTITLE=Vince Gill - A Pocket Full Of Live Songs
DYEAR=1994
DGENRE=
TTITLE0=Oklahoma Borderline
TTITLE1=Cinderella
TTITLE2=Pocket Full Of Gold
TTITLE3=Ridin`The Rodeo
TTITLE4=One More Last Chance
TTITLE5=Take Your Memory With You
TTITLE6=Tryin` To Get Over You
TTITLE7=Rita Ballou
TTITLE8=Whenever You Come Around
TTITLE9=What The Cowgirls Do
TTITLE10=Don`t Let Our Love Start Slippin` Away
TTITLE11=Nothing Like A Woman
TTITLE12=South Dide Of Dixie
TTITLE13=When I Call Your Name
TTITLE14=Liza Jane
TTITLE15=I Still Believe In You
EXTD=
EXTT0=
EXTT1=
EXTT2=
EXTT3=
EXTT4=
EXTT5=
EXTT6=
EXTT7=
EXTT8=
EXTT9=
EXTT10=
EXTT11=
EXTT12=
EXTT13=
EXTT14=
EXTT15=
PLAYORDER=
